<svg width="24" height="25" viewBox="0 0 24 25" fill="none" xmlns="http://www.w3.org/2000/svg">
<path d="M22 7.5V17.5C22 18.163 21.7366 18.7989 21.2678 19.2678C20.7989 19.7366 20.163 20 19.5 20H4.5C3.83696 20 3.20107 19.7366 2.73223 19.2678C2.26339 18.7989 2 18.163 2 17.5V7.5" stroke="#9795B5" stroke-width="2" stroke-linecap="round" stroke-linejoin="round"/>
<path d="M22 7.5C22 6.83696 21.7366 6.20107 21.2678 5.73223C20.7989 5.26339 20.163 5 19.5 5H4.5C3.83696 5 3.20107 5.26339 2.73223 5.73223C2.26339 6.20107 2 6.83696 2 7.5L10.675 12.9167C11.0723 13.165 11.5314 13.2967 12 13.2967C12.4686 13.2967 12.9277 13.165 13.325 12.9167L22 7.5Z" stroke="#9795B5" stroke-width="2" stroke-linecap="round" stroke-linejoin="round"/>
</svg>
