<svg width="24" height="25" viewBox="0 0 24 25" fill="none" xmlns="http://www.w3.org/2000/svg">
<path d="M20.2334 11.1078C20.2334 17.5624 13.6224 21.5389 12.2485 22.2964C12.1724 22.3383 12.0869 22.3604 12 22.3604C11.9131 22.3604 11.8276 22.3383 11.7514 22.2964C10.3765 21.5389 3.76758 17.5624 3.76758 11.1078C3.76758 5.96225 6.85492 2.36035 12.0005 2.36035C17.1461 2.36035 20.2334 5.96225 20.2334 11.1078Z" stroke="#9795B5" stroke-width="2" stroke-linecap="round" stroke-linejoin="round"/>
<path d="M7.88379 10.5933C7.88379 11.685 8.31749 12.7321 9.08947 13.504C9.86146 14.276 10.9085 14.7097 12.0002 14.7097C13.092 14.7097 14.139 14.276 14.911 13.504C15.683 12.7321 16.1167 11.685 16.1167 10.5933C16.1167 9.50151 15.683 8.45447 14.911 7.68249C14.139 6.9105 13.092 6.47681 12.0002 6.47681C10.9085 6.47681 9.86146 6.9105 9.08947 7.68249C8.31749 8.45447 7.88379 9.50151 7.88379 10.5933V10.5933Z" stroke="#9795B5" stroke-width="2" stroke-linecap="round" stroke-linejoin="round"/>
</svg>
