<svg width="24" height="25" viewBox="0 0 24 25" fill="none" xmlns="http://www.w3.org/2000/svg">
<path d="M14.7019 21.2227L14.7128 21.2303C15.6573 21.8317 16.7786 22.0928 17.8916 21.9706C19.0045 21.8484 20.0425 21.3501 20.8339 20.5581L21.5215 19.8706C21.6738 19.7183 21.7947 19.5375 21.8772 19.3385C21.9596 19.1395 22.0021 18.9262 22.0021 18.7108C22.0021 18.4954 21.9596 18.2821 21.8772 18.0832C21.7947 17.8842 21.6738 17.7034 21.5215 17.5511L18.6216 14.6534C18.4693 14.5011 18.2885 14.3802 18.0895 14.2977C17.8906 14.2153 17.6773 14.1728 17.4619 14.1728C17.2465 14.1728 17.0332 14.2153 16.8342 14.2977C16.6352 14.3802 16.4544 14.5011 16.3021 14.6534C15.9947 14.9608 15.5777 15.1335 15.1429 15.1335C14.7082 15.1335 14.2912 14.9608 13.9838 14.6534L9.34701 10.0156C9.03964 9.70811 8.86696 9.29115 8.86696 8.85639C8.86696 8.42163 9.03964 8.00467 9.34701 7.69721C9.49937 7.54494 9.62024 7.36415 9.7027 7.16516C9.78516 6.96616 9.82761 6.75287 9.82761 6.53747C9.82761 6.32207 9.78516 6.10878 9.7027 5.90979C9.62024 5.7108 9.49937 5.53 9.34701 5.37774L6.44823 2.48005C6.14076 2.17267 5.7238 2 5.28904 2C4.85428 2 4.43732 2.17267 4.12986 2.48005L3.44123 3.16758C2.64941 3.95915 2.15134 4.99717 2.02931 6.11012C1.90728 7.22308 2.1686 8.34436 2.77009 9.28869L2.77665 9.29962C5.95327 13.9995 10.0014 18.0469 14.7019 21.2227V21.2227Z" stroke="#9795B5" stroke-width="2" stroke-linecap="round" stroke-linejoin="round"/>
</svg>
